<?xml version="1.0" encoding="UTF-8"?>
<svg width="1000px" height="1000px" viewBox="0 0 1000 1000" version="1.1" xmlns="http://www.w3.org/2000/svg" xmlns:xlink="http://www.w3.org/1999/xlink">
    <title>Custom Preset</title>
    <defs>
        <linearGradient x1="50%" y1="0%" x2="50%" y2="100%" id="linearGradient-1">
            <stop stop-color="#3849B5" offset="0%"></stop>
            <stop stop-color="#1A237E" offset="100%"></stop>
        </linearGradient>
    </defs>
    <g id="Custom-Preset" stroke="none" stroke-width="1" fill="none" fill-rule="evenodd">
        <path d="M887.998904,396.575804 L888,689 C888,799.45695 798.45695,889 688,889 L311,889 C200.54305,889 111,799.45695 111,689 L110.998235,686.953753 C125.848376,687.298384 141.09026,687.4707 156.723885,687.4707 C264.198508,687.4707 347.091169,680.215556 405.401868,665.705267 C463.712568,651.194979 508.303103,633.322551 539.173473,612.087984 C570.043844,590.853416 592.339111,567.495391 606.059276,542.013909 C619.77944,516.532428 636.357973,493.174403 655.794872,471.939835 C675.231772,450.705267 702.100428,432.83284 736.40084,418.322551 C769.69626,404.23741 820.228949,396.988494 887.998904,396.575804 Z M688,112 C798.45695,112 888,201.54305 888,312 L888.000192,332.886698 C884.367344,332.86451 880.711455,332.853416 877.032527,332.853416 C776.417986,332.853416 698.670387,340.10856 643.789728,354.618848 C588.90907,369.129136 546.033556,387.001564 515.163185,408.236132 C484.292815,429.4707 461.425874,452.828724 446.562362,478.310206 C431.69885,503.791687 413.976971,527.149712 393.396724,548.38428 C372.816477,569.618848 344.232801,587.491276 307.645695,602.001564 C271.05859,616.511852 216.177931,623.766996 143.00372,623.766996 C132.039563,623.766996 121.371116,623.573759 110.998378,623.187285 L110.999234,369.133 L112.13335,368.952181 L110.999234,368.435 L111,312 C111,201.54305 200.54305,112 311,112 L688,112 Z" id="Combined-Shape" fill="url(#linearGradient-1)"></path>
    </g>
</svg>